{"accessors":[{"bufferView":2,"componentType":5126,"count":3551,"max":[55.459720611572266,268.0669860839844,55.93320846557617],"min":[-55.255001068115234,0.01495600026100874,-67.11469268798828],"type":"VEC3"},{"bufferView":2,"byteOffset":42612,"componentType":5126,"count":3551,"max":[1,1,1],"min":[-1,-1,-1],"type":"VEC3"},{"bufferView":3,"componentType":5126,"count":3551,"max":[1,1,1,1],"min":[-1,-1,-1,-1],"type":"VEC4"},{"bufferView":1,"componentType":5126,"count":3551,"max":[0.9978294968605042,0.9934062957763672],"min":[0.008083639666438103,0.001996263861656189],"type":"VEC2"},{"bufferView":0,"componentType":5125,"count":10251,"type":"SCALAR"}],"asset":{"extras":{"author":"Nikitos & 3130 (https://sketchfab.com/vrcityphoto)","license":"CC-BY-4.0 (http://creativecommons.org/licenses/by/4.0/)","source":"https://sketchfab.com/3d-models/cryo-lod0-4e30f902d6434379832ad80da5317eec","title":"Cryo LOD0"},"generator":"Sketchfab-12.68.0","version":"2.0"},"bufferViews":[{"buffer":0,"byteLength":41004,"name":"floatBufferViews","target":34963},{"buffer":0,"byteLength":28408,"byteOffset":41004,"byteStride":8,"name":"floatBufferViews","target":34962},{"buffer":0,"byteLength":85224,"byteOffset":69412,"byteStride":12,"name":"floatBufferViews","target":34962},{"buffer":0,"byteLength":56816,"byteOffset":154636,"byteStride":16,"name":"floatBufferViews","target":34962}],"buffers":[{"byteLength":211452,"uri":"data:application/octet-stream;base64,"}],"images":[{"uri":"data:application/octet-stream;base64,"},{"uri":"data:application/octet-stream;base64,"},{"uri":"data:application/octet-stream;base64,"}],"materials":[{"doubleSided":true,"name":"lambert1","normalTexture":{"index":2},"pbrMetallicRoughness":{"baseColorTexture":{"index":0},"metallicFactor":0.3955625057,"metallicRoughnessTexture":{"index":1},"roughnessFactor":0.2955625057}}],"meshes":[{"name":"cryo_LOD0_lambert1_0","primitives":[{"attributes":{"NORMAL":1,"POSITION":0,"TANGENT":2,"TEXCOORD_0":3},"indices":4,"material":0,"mode":4}]}],"nodes":[{"children":[1],"matrix":[1,0,0,0,0,2.220446049250313e-16,-1,0,0,1,2.220446049250313e-16,0,0,0,0,1],"name":"Sketchfab_model"},{"children":[2],"matrix":[1,0,0,0,0,0,1,0,0,-1,0,0,0,0,0,1],"name":"cryo_LOD0.fbx"},{"children":[3],"name":"RootNode"},{"children":[4],"name":"cryo_LOD0"},{"mesh":0,"name":"cryo_LOD0_lambert1_0"}],"samplers":[{"magFilter":9729,"minFilter":9987,"wrapS":10497,"wrapT":10497}],"scene":0,"scenes":[{"name":"Sketchfab_Scene","nodes":[0]}],"textures":[{"sampler":0,"source":0},{"sampler":0,"source":1},{"sampler":0,"source":2}]}